<svg width="290" height="96" viewBox="0 0 290 96" fill="none" xmlns="http://www.w3.org/2000/svg">
<g opacity="0.84">
<path fill-rule="evenodd" clip-rule="evenodd" d="M36.6559 66.4133C38.314 64.4235 40.7703 63.2731 43.3604 63.2731H78.5455C88.1853 63.2731 96 55.4584 96 45.8185V37.0913C96 27.4514 88.1853 19.6367 78.5455 19.6367H71.724C69.1339 19.6367 66.6777 20.7872 65.0195 22.7769L59.3441 29.5874C57.686 31.5772 55.2297 32.7276 52.6396 32.7276H17.4545C7.81467 32.7276 0 40.5423 0 50.1822V58.9094C0 68.5493 7.81467 76.364 17.4545 76.364H24.276C26.8661 76.364 29.3223 75.2135 30.9805 73.2238L36.6559 66.4133ZM82.9091 37.0913C82.9091 34.6813 80.9554 32.7276 78.5455 32.7276H65.1786C62.5885 32.7276 60.1322 33.8781 58.4741 35.8678L52.7987 42.6783C51.1405 44.6681 48.6843 45.8185 46.0942 45.8185H17.4545C15.0446 45.8185 13.0909 47.7722 13.0909 50.1822V58.9094C13.0909 61.3194 15.0446 63.2731 17.4545 63.2731H30.8215C33.4115 63.2731 35.8678 62.1226 37.5259 60.1329L43.2013 53.3224C44.8595 51.3326 47.3157 50.1822 49.9058 50.1822H78.5455C80.9554 50.1822 82.9091 48.2285 82.9091 45.8185V37.0913Z" fill="white"/>
</g>
<g opacity="0.84">
<path d="M150.29 66.0011L144.296 44.8871L143.432 40.9991L142.514 44.8871L136.574 66.0011H126.854L116 29.2811H125.234L131.12 53.3651L132.092 57.7391L133.064 53.3651L139.868 29.2811H147.428L154.178 53.3651L155.15 57.7391L156.122 53.3651L162.008 29.2811H170.756L159.902 66.0011H150.29Z" fill="white"/>
<path d="M179.327 46.5611H171.065C171.929 40.0271 176.951 36.0311 184.403 36.0311C192.719 36.0311 197.039 40.8911 197.039 47.6411V58.7651C197.039 62.5451 197.363 64.4891 197.849 66.0011H189.317C189.047 65.0291 188.885 63.7871 188.831 62.3831C186.563 65.5151 183.107 66.8651 179.651 66.8651C174.143 66.8651 170.039 64.0571 170.039 58.4951C170.039 54.5531 172.307 51.5291 176.897 49.9091C180.677 48.6671 184.295 48.2891 188.777 48.2351V47.5871C188.777 44.4011 187.211 42.7271 184.025 42.7271C181.217 42.7271 179.705 44.2931 179.327 46.5611ZM178.301 57.9551C178.301 59.8991 179.759 61.1411 182.189 61.1411C185.861 61.1411 188.777 58.1711 188.777 54.1751V53.0411C180.407 53.2031 178.301 55.2551 178.301 57.9551Z" fill="white"/>
<path d="M201.84 66.0011V36.9491H210.102V40.9991C211.938 37.5431 214.746 36.0311 217.716 36.0311C218.904 36.0311 219.984 36.3551 220.578 36.9491V43.9151C219.606 43.6991 218.58 43.5911 217.284 43.5911C212.316 43.5911 210.102 46.3991 210.102 50.9891V66.0011H201.84Z" fill="white"/>
<path d="M231.065 77.9351H222.803V36.9491H231.065V39.9731C232.847 37.4351 235.331 36.0311 238.355 36.0311C245.861 36.0311 250.559 41.9171 250.559 51.4211C250.559 61.3031 245.753 66.8651 238.355 66.8651C235.277 66.8651 232.793 65.5691 231.065 63.0851V77.9351ZM236.627 42.7271C232.955 42.7271 231.065 45.8051 231.065 51.4211C231.065 57.0371 233.009 60.1691 236.627 60.1691C240.191 60.1691 242.081 57.0911 242.081 51.4211C242.081 45.8051 240.137 42.7271 236.627 42.7271Z" fill="white"/>
<path d="M261.02 44.9951C261.02 50.7191 279.002 45.6971 279.002 57.1991C279.002 62.9231 273.71 66.8651 266.15 66.8651C258.806 66.8651 253.514 63.6251 252.434 56.4431H260.696C261.074 59.1431 263.288 60.6011 266.366 60.6011C269.282 60.6011 270.74 59.4671 270.74 57.6851C270.74 52.0691 253.136 57.0911 253.136 45.4271C253.136 40.5671 257.078 36.0311 264.854 36.0311C271.82 36.0311 277.112 39.2171 277.922 46.5611H269.714C269.228 43.5911 267.5 42.3491 264.584 42.3491C262.424 42.3491 261.02 43.4291 261.02 44.9951Z" fill="white"/>
<path d="M290.341 77.9351H282.079V36.9491H290.341V39.9731C292.123 37.4351 294.607 36.0311 297.631 36.0311C305.137 36.0311 309.835 41.9171 309.835 51.4211C309.835 61.3031 305.029 66.8651 297.631 66.8651C294.553 66.8651 292.069 65.5691 290.341 63.0851V77.9351ZM295.903 42.7271C292.231 42.7271 290.341 45.8051 290.341 51.4211C290.341 57.0371 292.285 60.1691 295.903 60.1691C299.467 60.1691 301.357 57.0911 301.357 51.4211C301.357 45.8051 299.413 42.7271 295.903 42.7271Z" fill="white"/>
<path d="M340.492 56.4431C338.98 63.1391 333.58 66.8651 326.452 66.8651C317.434 66.8651 311.872 61.0331 311.872 51.4751C311.872 41.5931 317.488 36.0311 326.128 36.0311C334.822 36.0311 340.276 41.8091 340.276 51.3131V53.1491H320.296C320.728 57.7931 322.888 60.2771 326.452 60.2771C329.152 60.2771 330.988 59.0891 331.852 56.4431H340.492ZM326.128 42.6191C323.05 42.6191 321.106 44.6171 320.458 48.3971H331.744C331.096 44.6171 329.152 42.6191 326.128 42.6191Z" fill="white"/>
<path d="M371.105 56.4431C369.593 63.1391 364.193 66.8651 357.065 66.8651C348.047 66.8651 342.485 61.0331 342.485 51.4751C342.485 41.5931 348.101 36.0311 356.741 36.0311C365.435 36.0311 370.889 41.8091 370.889 51.3131V53.1491H350.909C351.341 57.7931 353.501 60.2771 357.065 60.2771C359.765 60.2771 361.601 59.0891 362.465 56.4431H371.105ZM356.741 42.6191C353.663 42.6191 351.719 44.6171 351.071 48.3971H362.357C361.709 44.6171 359.765 42.6191 356.741 42.6191Z" fill="white"/>
<path d="M385.249 66.8651C377.797 66.8651 373.099 61.0331 373.099 51.4751C373.099 41.5931 377.905 36.0311 385.249 36.0311C388.327 36.0311 390.811 37.3271 392.593 39.8111V27.1211H400.855V66.0011H392.593V62.9231C390.811 65.4611 388.273 66.8651 385.249 66.8651ZM387.031 60.1691C390.703 60.1691 392.593 57.1451 392.593 51.4751C392.593 45.8591 390.649 42.7271 387.031 42.7271C383.467 42.7271 381.577 45.8051 381.577 51.4751C381.577 57.0911 383.521 60.1691 387.031 60.1691Z" fill="white"/>
</g>
</svg>
