<svg width="362" height="96" viewBox="0 0 362 96" fill="none" xmlns="http://www.w3.org/2000/svg">
<g opacity="0.84">
<path fill-rule="evenodd" clip-rule="evenodd" d="M32.3492 56.9866L41.4869 66.1243C47.0476 71.685 56.0632 71.685 61.6239 66.1243C63.4578 64.2904 64.6869 62.0807 65.3112 59.743L71.6924 66.1243C77.2531 71.685 86.2688 71.685 91.8295 66.1243C97.3902 60.5636 97.3902 51.5479 91.8295 45.9872L71.6924 25.8502C66.1317 20.2895 57.1161 20.2895 51.5554 25.8502C49.7215 27.6841 48.4924 29.8938 47.8681 32.2315L41.4869 25.8502C35.9262 20.2895 26.9105 20.2895 21.3498 25.8502L4.77872 42.4213C-1.59291 48.793 -1.59291 59.1234 4.77872 65.495C11.1503 71.8666 21.4808 71.8666 27.8524 65.495C30.2644 63.083 31.7633 60.1037 32.3492 56.9866ZM36.4526 30.8845C33.6723 28.1041 29.1644 28.1041 26.3841 30.8845C23.6049 33.6636 23.6037 38.1688 26.3805 40.9494L46.5211 61.09C49.3015 63.8704 53.8093 63.8704 56.5897 61.09C59.3685 58.3112 59.37 53.8067 56.5941 51.0259L36.4526 30.8845ZM22.8182 47.4556L16.3156 40.953L9.81298 47.4556C6.2217 51.0469 6.2217 56.8695 9.81298 60.4608C13.4043 64.052 19.2269 64.052 22.8182 60.4608C26.4094 56.8695 26.4094 51.0469 22.8182 47.4556ZM56.5837 40.9471C53.8093 38.1663 53.8113 33.6628 56.5897 30.8845C59.37 28.1041 63.8778 28.1041 66.6582 30.8845L86.7952 51.0215C89.5756 53.8019 89.5756 58.3097 86.7952 61.09C84.0149 63.8704 79.507 63.8704 76.7267 61.09L56.5837 40.9471Z" fill="white"/>
</g>
<g opacity="0.84">
<path d="M121.106 65.9996H112V23.0796H121.106L133.866 51.0956L146.684 23.0796H155.906V65.9996H146.8V57.0096C146.8 47.7296 146.8 45.6996 147.264 42.5096L138.158 61.9996H129.574L120.526 42.5096C121.048 45.6996 121.106 49.2956 121.106 53.9936V65.9996Z" fill="white"/>
<path d="M172.502 66.7536C166.354 66.7536 162.526 63.1576 162.526 57.4736C162.526 52.1376 166.296 48.8316 173.256 48.3096L181.376 47.6716V47.2076C181.376 44.3656 179.636 42.8576 176.446 42.8576C172.676 42.8576 170.646 44.3076 170.646 46.9176H163.222C163.222 40.3636 168.616 36.0716 176.91 36.0716C185.32 36.0716 190.076 40.7696 190.076 49.0636V65.9996H182.188L181.608 62.1716C180.68 64.8396 176.852 66.7536 172.502 66.7536ZM175.634 60.1416C179.056 60.1416 181.434 58.4596 181.434 55.1536V53.5876L176.91 53.9936C173.024 54.3416 171.632 55.2116 171.632 57.0676C171.632 59.1556 172.908 60.1416 175.634 60.1416Z" fill="white"/>
<path d="M195.032 50.9776C195.032 42.1616 200.774 36.0136 208.952 36.0136C212.896 36.0136 216.028 37.5216 217.594 39.8996L218.058 36.9996H226.468V64.1436C226.468 74.5256 220.494 80.7896 210.576 80.7896C201.702 80.7896 195.728 75.7436 194.916 67.5076H203.964C204.138 70.7556 206.574 72.6696 210.518 72.6696C214.81 72.6696 217.536 70.1176 217.536 65.9996V62.2296C215.796 64.3176 212.548 65.6516 208.778 65.6516C200.658 65.6516 195.032 59.6776 195.032 50.9776ZM204.022 50.7456C204.022 54.9216 206.806 57.8796 210.75 57.8796C214.81 57.8796 217.536 55.0376 217.536 50.7456C217.536 46.5116 214.81 43.7856 210.692 43.7856C206.748 43.7856 204.022 46.6276 204.022 50.7456Z" fill="white"/>
<path d="M242.117 65.9996H233.185V36.9996H241.595L242.175 40.0156C243.973 37.5216 247.279 36.0716 251.049 36.0716C257.951 36.0716 261.953 40.4796 261.953 48.0776V65.9996H253.021V50.2236C253.021 46.5696 250.991 44.1916 247.917 44.1916C244.379 44.1916 242.117 46.5116 242.117 50.1076V65.9996Z" fill="white"/>
<path d="M266.793 51.4416C266.793 42.2776 273.521 36.1296 282.801 36.1296C292.023 36.1296 298.751 42.2776 298.751 51.4416C298.751 60.6056 292.023 66.6956 282.801 66.6956C273.521 66.6956 266.793 60.6056 266.793 51.4416ZM275.783 51.3836C275.783 55.7916 278.625 58.6916 282.801 58.6916C286.919 58.6916 289.761 55.7916 289.761 51.3836C289.761 47.0336 286.919 44.1336 282.801 44.1336C278.625 44.1336 275.783 47.0336 275.783 51.3836Z" fill="white"/>
<path d="M312.861 65.9996H303.929V22.2676H312.861V65.9996Z" fill="white"/>
<path d="M323.97 32.4756C321.128 32.4756 318.866 30.2136 318.866 27.3716C318.866 24.5296 321.128 22.3256 323.97 22.3256C326.754 22.3256 329.016 24.5296 329.016 27.3716C329.016 30.2136 326.754 32.4756 323.97 32.4756ZM319.562 65.9996V36.9996H328.494V65.9996H319.562Z" fill="white"/>
<path d="M343.953 66.7536C337.805 66.7536 333.977 63.1576 333.977 57.4736C333.977 52.1376 337.747 48.8316 344.707 48.3096L352.827 47.6716V47.2076C352.827 44.3656 351.087 42.8576 347.897 42.8576C344.127 42.8576 342.097 44.3076 342.097 46.9176H334.673C334.673 40.3636 340.067 36.0716 348.361 36.0716C356.771 36.0716 361.527 40.7696 361.527 49.0636V65.9996H353.639L353.059 62.1716C352.131 64.8396 348.303 66.7536 343.953 66.7536ZM347.085 60.1416C350.507 60.1416 352.885 58.4596 352.885 55.1536V53.5876L348.361 53.9936C344.475 54.3416 343.083 55.2116 343.083 57.0676C343.083 59.1556 344.359 60.1416 347.085 60.1416Z" fill="white"/>
</g>
</svg>
