<svg width="396" height="96" viewBox="0 0 396 96" fill="none" xmlns="http://www.w3.org/2000/svg">
<g opacity="0.84">
<path fill-rule="evenodd" clip-rule="evenodd" d="M53.3593 4.02776C54.2535 3.56124 55.3222 3.57521 56.2038 4.06494L76.4567 15.315C77.4093 15.8441 78.0001 16.8481 78 17.9377L77.9986 40.4368C77.9985 41.5544 77.3772 42.5794 76.3863 43.0963L24.6393 70.0956C23.745 70.5622 22.6762 70.5481 21.7945 70.0583L1.54689 58.8085C0.594718 58.2795 0.00411515 57.2759 0.00392513 56.1866L4.58953e-08 33.6873C-0.000194981 32.5694 0.621178 31.5441 1.61227 31.027L53.3593 4.02776ZM6.00032 35.5051L6.00306 51.2375L51.7507 27.3685L51.7479 11.6361L6.00032 35.5051ZM57.7479 11.7862L57.7507 27.4216L71.9989 35.338L71.9999 19.7028L57.7479 11.7862ZM68.6723 40.3536L54.7063 32.594L9.33025 56.2691L23.2962 64.0287L68.6723 40.3536Z" fill="white"/>
<path opacity="0.5" fill-rule="evenodd" clip-rule="evenodd" d="M24.6407 92.5972C23.7465 93.0638 22.6778 93.0498 21.7962 92.5601L1.54325 81.31C0.590707 80.7809 -5.22552e-05 79.7769 1.65046e-05 78.6873L0.00141465 56.1882C0.00148341 55.0706 0.622814 54.0456 1.61368 53.5286L53.3607 26.5294C54.255 26.0628 55.3238 26.0769 56.2055 26.5667L76.4531 37.8165C77.4053 38.3455 77.9959 39.3491 77.9961 40.4384L78 62.9377C78.0002 64.0556 77.3788 65.0809 76.3877 65.598L24.6407 92.5972ZM71.9997 61.1199L71.9969 45.3875L26.2493 69.2565L26.2521 84.9889L71.9997 61.1199ZM20.2521 84.8388L20.2493 69.2034L6.0011 61.287L6.00012 76.9222L20.2521 84.8388ZM9.32773 56.2714L23.2937 64.031L68.6698 40.3559L54.7038 32.5963L9.32773 56.2714Z" fill="white"/>
</g>
<g opacity="0.84">
<path d="M130.13 53.9582C130.13 61.3562 124.19 66.5402 114.47 66.5402C104.696 66.5402 98.594 61.3022 98 53.0942H106.316C106.532 57.3602 109.286 60.1142 114.308 60.1142C118.466 60.1142 121.436 58.2782 121.436 55.1462C121.436 52.7162 119.546 51.2582 116.252 50.6102L109.88 49.3682C103.994 48.2342 99.458 45.0482 99.458 38.6222C99.458 31.7102 105.56 26.7422 113.93 26.7422C122.624 26.7422 128.996 31.8182 129.536 39.9182H121.22C120.95 35.8682 118.142 33.1142 114.038 33.1142C110.042 33.1142 107.774 35.3822 107.774 38.0822C107.774 40.7282 110.204 41.8622 113.012 42.4022L119.654 43.7522C126.458 45.1022 130.13 48.2342 130.13 53.9582Z" fill="white"/>
<path d="M151.514 58.7102V65.2442C149.678 66.1622 147.95 66.5402 145.736 66.5402C139.796 66.5402 136.07 63.1382 136.07 56.6582V43.5902H130.238V37.1642H136.07V28.6322H143.522V37.1642H151.784V43.5902H143.522V54.9302C143.522 58.2782 145.034 59.6282 147.734 59.6282C149.138 59.6282 150.434 59.3042 151.514 58.7102Z" fill="white"/>
<path d="M171.379 66.0002V62.4362C169.489 65.1362 166.627 66.5402 162.685 66.5402C156.691 66.5402 152.695 63.0302 152.695 57.6302C152.695 52.0142 157.231 48.9902 165.655 48.9902C167.275 48.9902 168.679 49.0982 170.461 49.3142V47.5862C170.461 44.3462 168.625 42.4562 165.493 42.4562C162.253 42.4562 160.309 44.3462 160.039 47.5862H153.289C153.721 40.9442 158.527 36.6242 165.493 36.6242C173.053 36.6242 177.481 40.7822 177.481 47.8562V66.0002H171.379ZM159.769 57.4142C159.769 59.8442 161.497 61.3562 164.305 61.3562C168.139 61.3562 170.461 59.2502 170.461 55.9022V53.8502C168.679 53.5802 167.437 53.4722 166.141 53.4722C161.875 53.4722 159.769 54.8222 159.769 57.4142Z" fill="white"/>
<path d="M193.939 66.5402C185.623 66.5402 179.899 60.3842 179.899 51.5822C179.899 42.9422 185.839 36.6242 193.939 36.6242C201.445 36.6242 207.007 41.7002 207.925 49.4762H200.041C199.663 45.6422 197.341 43.2662 193.939 43.2662C190.051 43.2662 187.567 46.4522 187.567 51.5822C187.567 56.7662 189.997 59.8982 193.939 59.8982C197.395 59.8982 199.609 57.6302 200.041 53.6882H207.925C207.061 61.6262 201.661 66.5402 193.939 66.5402Z" fill="white"/>
<path d="M218.09 66.0002H210.584V27.2282H218.09V49.3682L228.62 37.1642H237.26L225.326 50.9882L238.664 66.0002H229.106L218.09 52.6082V66.0002Z" fill="white"/>
<path d="M267.075 51.5822C267.075 43.0502 272.097 36.6242 279.873 36.6242C283.329 36.6242 286.245 38.1362 288.405 40.8902V27.2282H295.857V66.0002H288.999V61.8422C286.731 64.8662 283.599 66.5402 279.873 66.5402C272.097 66.5402 267.075 60.0062 267.075 51.5822ZM274.797 51.5822C274.797 56.9822 277.875 59.8442 281.547 59.8442C285.273 59.8442 288.351 56.9282 288.351 51.4742C288.351 46.0202 285.219 43.2662 281.547 43.2662C277.875 43.2662 274.797 46.0742 274.797 51.5822Z" fill="white"/>
<path d="M335.226 66.0002H310.17V27.2282H318.378V58.6022H335.226V66.0002Z" fill="white"/>
<path d="M355.226 66.0002V62.4362C353.336 65.1362 350.474 66.5402 346.532 66.5402C340.538 66.5402 336.542 63.0302 336.542 57.6302C336.542 52.0142 341.078 48.9902 349.502 48.9902C351.122 48.9902 352.526 49.0982 354.308 49.3142V47.5862C354.308 44.3462 352.472 42.4562 349.34 42.4562C346.1 42.4562 344.156 44.3462 343.886 47.5862H337.136C337.568 40.9442 342.374 36.6242 349.34 36.6242C356.9 36.6242 361.328 40.7822 361.328 47.8562V66.0002H355.226ZM343.616 57.4142C343.616 59.8442 345.344 61.3562 348.152 61.3562C351.986 61.3562 354.308 59.2502 354.308 55.9022V53.8502C352.526 53.5802 351.284 53.4722 349.988 53.4722C345.722 53.4722 343.616 54.8222 343.616 57.4142Z" fill="white"/>
<path d="M394.418 51.5822C394.418 60.0062 389.396 66.5402 381.62 66.5402C377.894 66.5402 374.762 64.8662 372.548 61.8422V66.0002H365.636V27.2282H373.142V40.8902C375.248 38.0822 378.164 36.6242 381.62 36.6242C389.396 36.6242 394.418 43.0502 394.418 51.5822ZM386.696 51.5822C386.696 46.0742 383.618 43.2662 379.946 43.2662C376.328 43.2662 373.196 46.0202 373.196 51.4742C373.196 56.9282 376.22 59.8442 379.946 59.8442C383.618 59.8442 386.696 56.9822 386.696 51.5822Z" fill="white"/>
<path d="M252.379 66.4862C260.263 66.4862 265.825 61.8422 265.879 55.2542H258.589C258.373 58.5482 255.997 60.5462 252.271 60.5462C248.383 60.5462 246.115 58.6022 246.115 55.3622C246.115 52.1762 248.761 50.2862 253.243 50.2862H257.185V44.3462H253.675C250.003 44.3462 247.789 42.5102 247.789 39.5402C247.789 36.6782 249.679 34.8962 252.811 34.8962C255.889 34.8962 257.833 36.8402 257.887 40.0262H265.177C265.123 33.7082 259.615 28.9562 252.433 28.9562C244.765 28.9562 240.067 33.1142 240.067 39.0002C240.067 42.3482 242.011 44.9942 245.521 46.8302C240.985 48.2882 238.393 51.2042 238.393 55.1462C238.393 61.8962 244.009 66.4862 252.379 66.4862Z" fill="white"/>
</g>
</svg>
