<svg width="56" height="56" viewBox="0 0 56 56" fill="none" xmlns="http://www.w3.org/2000/svg">
<g clip-path="url(#clip0_813_1387)">
<path d="M14.8635 32.6465C14.8635 31.2901 20.0099 30.529 22.4064 30.3441L22.6356 30.4765C21.715 30.6442 18.0211 31.2955 18.0211 32.1454C18.0211 33.0705 23.6866 33.6767 26.9747 33.6767C32.5595 33.6767 36.356 32.8314 37.377 32.5532L38.8059 33.3841C37.8273 33.8634 33.6278 35.1183 26.9747 35.1183C19.5813 35.1182 14.8635 33.6721 14.8635 32.6465ZM26.132 51.6917C23.2055 51.717 19.6329 51.4751 16.6275 50.9704L16.3485 51.1299C19.3429 52.0079 23.5116 52.5379 28.0918 52.4981C37.087 52.4202 44.3799 50.1894 44.5239 47.5048L44.4207 47.4442C43.8173 48.1798 39.9266 51.5712 26.132 51.6917ZM26.8976 49.963C34.2602 49.8987 42.4971 48.458 42.4763 46.0362C42.4718 45.5967 42.1863 45.2959 41.938 45.1148L41.8166 45.1845C41.1361 47.06 35.3846 48.4463 26.8858 48.5197C21.4023 48.5677 13.806 47.2539 13.7924 45.7363C13.7797 44.2141 17.3912 43.3778 17.3912 43.3778L17.1357 43.232C14.7157 43.5654 10.2561 44.7243 10.2705 46.3977C10.2916 48.8167 20.5408 50.0182 26.8976 49.963ZM43.4838 33.2944C43.3353 36.1348 40.7113 37.9034 38.0883 39.3975L38.3257 39.5353C41.1246 38.7471 46.1186 36.4547 45.7055 32.9301C45.4998 31.1733 43.8933 29.9175 41.7995 29.9175C41.1471 29.9175 40.5673 30.0325 40.097 30.1757L40.0952 30.1802L39.9955 30.4303C41.8692 30.0633 43.5808 31.4315 43.4838 33.2944ZM21.8573 41.7341C21.0029 41.9045 19.141 42.3322 19.141 43.2373C19.141 44.4912 23.124 45.4526 26.9702 45.4526C32.2625 45.4526 34.4306 44.0908 34.5284 44.0201L32.3276 42.7471C31.3916 42.97 29.8151 43.3197 26.9756 43.3197C23.8072 43.3197 21.7423 42.7779 21.7423 42.1835C21.7423 42.0575 21.8211 41.9072 21.9679 41.7985L21.8573 41.7341ZM34.8582 37.5065C33.6413 37.8509 30.8996 38.4126 26.9792 38.4126C23.1321 38.4126 19.989 37.7548 19.979 36.9792C19.9717 36.4627 20.596 36.2381 20.596 36.2381L20.4854 36.1738C18.6426 36.4991 16.9319 37.0029 16.941 37.7566C16.9582 39.1238 22.1879 40.1504 26.9719 40.1504C31.0392 40.1504 34.9451 39.4682 36.7074 38.5739L34.8582 37.5065Z" fill="#427595"/>
<path d="M33.8089 7.00465C33.8089 14.5439 23.4771 17.4287 23.4771 22.789C23.4771 26.5518 25.9724 28.9112 27.3532 30.4034L27.2409 30.4687C25.4976 29.3777 20.9121 26.6379 20.9121 22.1122C20.9121 15.758 32.7796 12.7219 32.7796 5.50517C32.7796 4.61724 32.6482 3.93593 32.5558 3.56891L32.6755 3.5C33.0514 3.9721 33.8089 5.15356 33.8089 7.00465ZM37.2066 13.6813L37.0825 13.6107C34.8346 14.3635 27.9123 17.0962 27.9123 22.1901C27.9123 25.0703 30.7256 26.6669 30.7256 29.3678C30.7256 30.3318 30.1811 31.2351 29.7389 31.7751L29.9608 31.9037C31.1323 31.1427 33.2054 29.4946 33.2054 27.3672C33.2054 25.5651 30.7119 23.3996 30.7119 21.0837C30.712 17.4342 35.5231 14.571 37.2066 13.6813Z" fill="#DE8E2F"/>
</g>
<defs>
<clipPath id="clip0_813_1387">
<rect width="49" height="49" fill="white" transform="translate(3.5 3.5)"/>
</clipPath>
</defs>
</svg>
