<svg width="68" height="68" viewBox="0 0 68 68" fill="none" xmlns="http://www.w3.org/2000/svg">
<g filter="url(#filter0_dii_813_1386)">
<path d="M2 13C2 6.37258 7.37258 1 14 1H54C60.6274 1 66 6.37258 66 13V53C66 59.6274 60.6274 65 54 65H14C7.37258 65 2 59.6274 2 53V13Z" fill="white" shape-rendering="crispEdges"/>
<path d="M14 1.5H54C60.3513 1.5 65.5 6.64873 65.5 13V53C65.5 59.3513 60.3513 64.5 54 64.5H14C7.64873 64.5 2.5 59.3513 2.5 53V13C2.5 6.64873 7.64873 1.5 14 1.5Z" stroke="#22262F" shape-rendering="crispEdges"/>
<g clip-path="url(#clip0_813_1386)">
<path d="M20.8635 37.6465C20.8635 36.2901 26.0099 35.529 28.4064 35.3441L28.6356 35.4765C27.715 35.6442 24.0211 36.2955 24.0211 37.1454C24.0211 38.0705 29.6866 38.6767 32.9747 38.6767C38.5595 38.6767 42.356 37.8314 43.377 37.5532L44.8059 38.3841C43.8273 38.8634 39.6278 40.1183 32.9747 40.1183C25.5813 40.1182 20.8635 38.6721 20.8635 37.6465ZM32.132 56.6917C29.2055 56.717 25.6329 56.4751 22.6275 55.9704L22.3485 56.1299C25.3429 57.0079 29.5116 57.5379 34.0918 57.4981C43.087 57.4202 50.3799 55.1894 50.5239 52.5048L50.4207 52.4442C49.8173 53.1798 45.9266 56.5712 32.132 56.6917ZM32.8976 54.963C40.2602 54.8987 48.4971 53.458 48.4763 51.0362C48.4718 50.5967 48.1863 50.2959 47.938 50.1148L47.8166 50.1845C47.1361 52.06 41.3846 53.4463 32.8858 53.5197C27.4023 53.5677 19.806 52.2539 19.7924 50.7363C19.7797 49.2141 23.3912 48.3778 23.3912 48.3778L23.1357 48.232C20.7157 48.5654 16.2561 49.7243 16.2705 51.3977C16.2916 53.8167 26.5408 55.0182 32.8976 54.963ZM49.4838 38.2944C49.3353 41.1348 46.7113 42.9034 44.0883 44.3975L44.3257 44.5353C47.1246 43.7471 52.1186 41.4547 51.7055 37.9301C51.4998 36.1733 49.8933 34.9175 47.7995 34.9175C47.1471 34.9175 46.5673 35.0325 46.097 35.1757L46.0952 35.1802L45.9955 35.4303C47.8692 35.0633 49.5808 36.4315 49.4838 38.2944ZM27.8573 46.7341C27.0029 46.9045 25.141 47.3322 25.141 48.2373C25.141 49.4912 29.124 50.4526 32.9702 50.4526C38.2625 50.4526 40.4306 49.0908 40.5284 49.0201L38.3276 47.7471C37.3916 47.97 35.8151 48.3197 32.9756 48.3197C29.8072 48.3197 27.7423 47.7779 27.7423 47.1835C27.7423 47.0575 27.8211 46.9072 27.9679 46.7985L27.8573 46.7341ZM40.8582 42.5065C39.6413 42.8509 36.8996 43.4126 32.9792 43.4126C29.1321 43.4126 25.989 42.7548 25.979 41.9792C25.9717 41.4627 26.596 41.2381 26.596 41.2381L26.4854 41.1738C24.6426 41.4991 22.9319 42.0029 22.941 42.7566C22.9582 44.1238 28.1879 45.1504 32.9719 45.1504C37.0392 45.1504 40.9451 44.4682 42.7074 43.5739L40.8582 42.5065Z" fill="#427595"/>
<path d="M39.8089 12.0046C39.8089 19.5439 29.4771 22.4287 29.4771 27.789C29.4771 31.5518 31.9724 33.9112 33.3532 35.4034L33.2409 35.4687C31.4976 34.3777 26.9121 31.6379 26.9121 27.1122C26.9121 20.758 38.7796 17.7219 38.7796 10.5052C38.7796 9.61724 38.6482 8.93593 38.5558 8.56891L38.6755 8.5C39.0514 8.9721 39.8089 10.1536 39.8089 12.0046ZM43.2066 18.6813L43.0825 18.6107C40.8346 19.3635 33.9123 22.0962 33.9123 27.1901C33.9123 30.0703 36.7256 31.6669 36.7256 34.3678C36.7256 35.3318 36.1811 36.2351 35.7389 36.7751L35.9608 36.9037C37.1323 36.1427 39.2054 34.4946 39.2054 32.3672C39.2054 30.5651 36.7119 28.3996 36.7119 26.0837C36.712 22.4342 41.5231 19.571 43.2066 18.6813Z" fill="#DE8E2F"/>
</g>
</g>
<defs>
<filter id="filter0_dii_813_1386" x="0" y="0" width="68" height="68" filterUnits="userSpaceOnUse" color-interpolation-filters="sRGB">
<feFlood flood-opacity="0" result="BackgroundImageFix"/>
<feColorMatrix in="SourceAlpha" type="matrix" values="0 0 0 0 0 0 0 0 0 0 0 0 0 0 0 0 0 0 127 0" result="hardAlpha"/>
<feOffset dy="1"/>
<feGaussianBlur stdDeviation="1"/>
<feComposite in2="hardAlpha" operator="out"/>
<feColorMatrix type="matrix" values="0 0 0 0 0.0392157 0 0 0 0 0.0496732 0 0 0 0 0.0705882 0 0 0 0.05 0"/>
<feBlend mode="normal" in2="BackgroundImageFix" result="effect1_dropShadow_813_1386"/>
<feBlend mode="normal" in="SourceGraphic" in2="effect1_dropShadow_813_1386" result="shape"/>
<feColorMatrix in="SourceAlpha" type="matrix" values="0 0 0 0 0 0 0 0 0 0 0 0 0 0 0 0 0 0 127 0" result="hardAlpha"/>
<feOffset dy="-2"/>
<feComposite in2="hardAlpha" operator="arithmetic" k2="-1" k3="1"/>
<feColorMatrix type="matrix" values="0 0 0 0 0.0392157 0 0 0 0 0.0496732 0 0 0 0 0.0705882 0 0 0 0.05 0"/>
<feBlend mode="normal" in2="shape" result="effect2_innerShadow_813_1386"/>
<feColorMatrix in="SourceAlpha" type="matrix" values="0 0 0 0 0 0 0 0 0 0 0 0 0 0 0 0 0 0 127 0" result="hardAlpha"/>
<feMorphology radius="1" operator="erode" in="SourceAlpha" result="effect3_innerShadow_813_1386"/>
<feOffset/>
<feComposite in2="hardAlpha" operator="arithmetic" k2="-1" k3="1"/>
<feColorMatrix type="matrix" values="0 0 0 0 0.0392157 0 0 0 0 0.0496732 0 0 0 0 0.0705882 0 0 0 0.18 0"/>
<feBlend mode="normal" in2="effect2_innerShadow_813_1386" result="effect3_innerShadow_813_1386"/>
</filter>
<clipPath id="clip0_813_1386">
<rect width="49" height="49" fill="white" transform="translate(9.5 8.5)"/>
</clipPath>
</defs>
</svg>
