<svg width="30" height="30" viewBox="0 0 30 30" fill="none" xmlns="http://www.w3.org/2000/svg">
<g filter="url(#filter0_ddiii_290_17)">
<rect x="1" y="0.5" width="28.3739" height="28.3739" rx="4.53258" fill="white"/>
<rect x="1" y="0.5" width="28.3739" height="28.3739" rx="4.53258" fill="url(#paint0_linear_290_17)"/>
<path fill-rule="evenodd" clip-rule="evenodd" d="M6.03143 22.8742C6.40159 22.7458 7.19631 22.362 7.41387 21.8544C7.53474 21.5723 9.06963 18.7682 10.8168 15.5983C10.0154 15.3079 8.71947 14.5665 7.47581 13.0359C7.78521 13.25 8.48959 13.6695 8.83183 13.6349C8.97576 13.6204 10.2288 13.6424 11.8755 13.6795C12.9476 11.7384 14.01 9.82016 14.802 8.39263C15.2326 7.64475 16.7419 6.21246 19.3345 6.46628C19.0626 6.63248 18.4824 7.04645 18.3374 7.3728C18.2568 7.55413 16.6704 10.4447 14.8489 13.7514C16.3853 13.7904 17.9201 13.8316 19.0521 13.863C19.6342 13.8899 21.233 14.4256 22.9721 16.3531C22.7181 16.2224 22.1542 15.9658 21.9305 15.9844C21.7512 15.9993 17.2629 15.8908 13.719 15.8014C12.607 17.8177 11.5033 19.8161 10.6773 21.3105C10.1636 22.0357 8.51529 23.3637 6.03143 22.8742Z" fill="#6941C6"/>
</g>
<defs>
<filter id="filter0_ddiii_290_17" x="0.818697" y="0.364023" width="28.7365" height="28.8725" filterUnits="userSpaceOnUse" color-interpolation-filters="sRGB">
<feFlood flood-opacity="0" result="BackgroundImageFix"/>
<feColorMatrix in="SourceAlpha" type="matrix" values="0 0 0 0 0 0 0 0 0 0 0 0 0 0 0 0 0 0 127 0" result="hardAlpha"/>
<feOffset dy="0.181303"/>
<feGaussianBlur stdDeviation="0.0906515"/>
<feComposite in2="hardAlpha" operator="out"/>
<feColorMatrix type="matrix" values="0 0 0 0 0 0 0 0 0 0 0 0 0 0 0 0 0 0 0.25 0"/>
<feBlend mode="normal" in2="BackgroundImageFix" result="effect1_dropShadow_290_17"/>
<feColorMatrix in="SourceAlpha" type="matrix" values="0 0 0 0 0 0 0 0 0 0 0 0 0 0 0 0 0 0 127 0" result="hardAlpha"/>
<feOffset dy="0.0453258"/>
<feGaussianBlur stdDeviation="0.0226629"/>
<feComposite in2="hardAlpha" operator="out"/>
<feColorMatrix type="matrix" values="0 0 0 0 0.162923 0 0 0 0 0.162923 0 0 0 0 0.162923 0 0 0 0.08 0"/>
<feBlend mode="normal" in2="effect1_dropShadow_290_17" result="effect2_dropShadow_290_17"/>
<feBlend mode="normal" in="SourceGraphic" in2="effect2_dropShadow_290_17" result="shape"/>
<feColorMatrix in="SourceAlpha" type="matrix" values="0 0 0 0 0 0 0 0 0 0 0 0 0 0 0 0 0 0 127 0" result="hardAlpha"/>
<feOffset dy="-0.135977"/>
<feGaussianBlur stdDeviation="0.0679887"/>
<feComposite in2="hardAlpha" operator="arithmetic" k2="-1" k3="1"/>
<feColorMatrix type="matrix" values="0 0 0 0 0 0 0 0 0 0 0 0 0 0 0 0 0 0 0.1 0"/>
<feBlend mode="normal" in2="shape" result="effect3_innerShadow_290_17"/>
<feColorMatrix in="SourceAlpha" type="matrix" values="0 0 0 0 0 0 0 0 0 0 0 0 0 0 0 0 0 0 127 0" result="hardAlpha"/>
<feOffset dy="0.135977"/>
<feGaussianBlur stdDeviation="0.0679887"/>
<feComposite in2="hardAlpha" operator="arithmetic" k2="-1" k3="1"/>
<feColorMatrix type="matrix" values="0 0 0 0 1 0 0 0 0 1 0 0 0 0 1 0 0 0 0.1 0"/>
<feBlend mode="normal" in2="effect3_innerShadow_290_17" result="effect4_innerShadow_290_17"/>
<feColorMatrix in="SourceAlpha" type="matrix" values="0 0 0 0 0 0 0 0 0 0 0 0 0 0 0 0 0 0 127 0" result="hardAlpha"/>
<feMorphology radius="0.0453258" operator="erode" in="SourceAlpha" result="effect5_innerShadow_290_17"/>
<feOffset/>
<feComposite in2="hardAlpha" operator="arithmetic" k2="-1" k3="1"/>
<feColorMatrix type="matrix" values="0 0 0 0 0 0 0 0 0 0 0 0 0 0 0 0 0 0 0.2 0"/>
<feBlend mode="normal" in2="effect4_innerShadow_290_17" result="effect5_innerShadow_290_17"/>
</filter>
<linearGradient id="paint0_linear_290_17" x1="15.187" y1="0.5" x2="16.3692" y2="28.8739" gradientUnits="userSpaceOnUse">
<stop stop-color="white" stop-opacity="0"/>
<stop offset="1" stop-color="white" stop-opacity="0.12"/>
</linearGradient>
</defs>
</svg>
