<svg width="248" height="96" viewBox="0 0 248 96" fill="none" xmlns="http://www.w3.org/2000/svg">
<g opacity="0.84">
<path d="M-6 8L2.57211 27.3051L22.2843 19.7157L14.6949 39.4279L34 48L14.6949 56.5721L22.2843 76.2843L2.57211 68.6949L-6 88L-14.5721 68.6949L-34.2843 76.2843L-26.6949 56.5721L-46 48L-26.6949 39.4279L-34.2843 19.7157L-14.5721 27.3051L-6 8Z" fill="white"/>
</g>
<g opacity="0.84">
<path d="M88.5324 33.688C89.4284 34.584 90.5484 35.032 91.8924 35.032C93.2364 35.032 94.3377 34.584 95.1964 33.688C96.055 32.7547 96.4844 31.6347 96.4844 30.328C96.4844 28.984 96.055 27.864 95.1964 26.968C94.3377 26.072 93.2364 25.624 91.8924 25.624C90.5484 25.624 89.4284 26.072 88.5324 26.968C87.6737 27.864 87.2444 28.984 87.2444 30.328C87.2444 31.6347 87.6737 32.7547 88.5324 33.688Z" fill="white"/>
<path d="M58.792 46.5449L73.912 66H84.832L68.2762 45.2796L84.272 26.464H73.408L58.792 44.2987V26.464H50V66H58.792V46.5449Z" fill="white"/>
<path d="M110.078 47.184C109.331 48.08 108.958 49.312 108.958 50.88V66H100.39V50.712C100.39 48.2107 100.931 46.0267 102.014 44.16C103.134 42.256 104.665 40.7814 106.606 39.736C108.585 38.6907 110.862 38.168 113.438 38.168C116.051 38.168 118.329 38.6907 120.27 39.736C122.211 40.7814 123.723 42.2374 124.806 44.104C125.889 45.9707 126.43 48.1734 126.43 50.712V66H117.862V50.88C117.862 49.312 117.47 48.08 116.686 47.184C115.939 46.2507 114.857 45.784 113.438 45.784C111.982 45.784 110.862 46.2507 110.078 47.184Z" fill="white"/>
<path d="M139.308 65.328C140.951 66.1867 142.855 66.616 145.02 66.616C147.111 66.616 148.81 66.2987 150.116 65.664C151.423 65.0294 152.599 64.1147 153.644 62.92L148.436 57.656C148.063 58.0667 147.634 58.384 147.148 58.608C146.7 58.7947 146.159 58.888 145.524 58.888C144.778 58.888 144.124 58.6454 143.564 58.16C143.042 57.6747 142.78 56.9467 142.78 55.976V46.12H151.684V38.784H142.78V27.528H134.212V38.784H128.164V46.12H134.212V55.92C134.212 58.1227 134.66 60.0267 135.556 61.632C136.452 63.2374 137.703 64.4694 139.308 65.328Z" fill="white"/>
<path d="M166.046 66.672C164.441 66.672 162.854 66.4667 161.286 66.056C159.756 65.6454 158.318 65.0667 156.974 64.32C155.668 63.536 154.548 62.64 153.614 61.632L158.486 56.704C159.382 57.6747 160.446 58.44 161.678 59C162.91 59.5227 164.254 59.784 165.71 59.784C166.718 59.784 167.484 59.6347 168.006 59.336C168.566 59.0374 168.846 58.6267 168.846 58.104C168.846 57.432 168.51 56.928 167.838 56.592C167.204 56.2187 166.382 55.9014 165.374 55.64C164.366 55.3414 163.302 55.024 162.182 54.688C161.062 54.352 159.998 53.8854 158.99 53.288C157.982 52.6907 157.161 51.8694 156.526 50.824C155.892 49.7414 155.574 48.3787 155.574 46.736C155.574 44.9814 156.022 43.4694 156.918 42.2C157.814 40.8934 159.084 39.8667 160.726 39.12C162.369 38.3734 164.292 38 166.494 38C168.809 38 170.937 38.4107 172.878 39.232C174.857 40.016 176.462 41.192 177.694 42.76L172.822 47.688C171.964 46.68 170.993 45.9707 169.91 45.56C168.865 45.1494 167.838 44.944 166.83 44.944C165.86 44.944 165.132 45.0934 164.646 45.392C164.161 45.6534 163.918 46.0454 163.918 46.568C163.918 47.128 164.236 47.576 164.87 47.912C165.505 48.248 166.326 48.5467 167.334 48.808C168.342 49.0694 169.406 49.3867 170.526 49.76C171.646 50.1334 172.71 50.6374 173.718 51.272C174.726 51.9067 175.548 52.7654 176.182 53.848C176.817 54.8934 177.134 56.2747 177.134 57.992C177.134 60.6427 176.126 62.752 174.11 64.32C172.132 65.888 169.444 66.672 166.046 66.672Z" fill="white"/>
<path d="M186.095 65.104C188.036 66.112 190.258 66.616 192.759 66.616C195.26 66.616 197.463 66.112 199.367 65.104C201.271 64.0587 202.764 62.64 203.847 60.848C204.93 59.0187 205.471 56.9094 205.471 54.52V38.784H196.903V54.464C196.903 55.8827 196.53 57.0027 195.783 57.824C195.036 58.608 194.028 59 192.759 59C191.863 59 191.098 58.8134 190.463 58.44C189.828 58.0667 189.343 57.544 189.007 56.872C188.708 56.2 188.559 55.3974 188.559 54.464V38.784H179.991V54.576C179.991 56.928 180.532 59.0187 181.615 60.848C182.698 62.64 184.191 64.0587 186.095 65.104Z" fill="white"/>
<path fill-rule="evenodd" clip-rule="evenodd" d="M220.482 78.096C217.981 78.096 215.722 77.648 213.706 76.752C211.728 75.856 210.16 74.6054 209.002 73C207.882 71.432 207.322 69.6214 207.322 67.568C207.322 65.9254 207.546 64.5814 207.994 63.536C208.48 62.4907 209.208 61.464 210.178 60.456L216.282 64.376C215.946 64.7494 215.685 65.1414 215.498 65.552C215.312 65.9627 215.218 66.448 215.218 67.008C215.218 68.128 215.685 69.024 216.618 69.696C217.552 70.368 218.858 70.704 220.538 70.704C222.33 70.704 223.712 70.2747 224.682 69.416C225.653 68.5947 226.138 67.4187 226.138 65.888C226.138 64.88 225.896 64.0027 225.41 63.256C224.925 62.472 224.234 61.8747 223.338 61.464C222.48 61.016 221.49 60.792 220.37 60.792C218.242 60.792 216.32 60.3067 214.602 59.336C212.922 58.328 211.578 56.984 210.57 55.304C209.6 53.5867 209.114 51.664 209.114 49.536C209.114 47.3334 209.618 45.392 210.626 43.712C211.672 41.9947 213.072 40.6507 214.826 39.68C216.618 38.7094 218.616 38.224 220.818 38.224C222.708 38.224 224.434 38.5814 225.994 39.2961L230.506 34.864L235.434 39.792L231.251 43.9749C232.099 45.4604 232.522 47.1274 232.522 48.976C232.522 51.0294 232.018 52.84 231.01 54.408C230.382 55.4239 229.596 56.2987 228.654 57.0325C230.113 57.968 231.29 59.1465 232.186 60.568C233.269 62.2854 233.81 64.2454 233.81 66.448C233.81 68.7254 233.25 70.7414 232.13 72.496C231.01 74.2507 229.461 75.6134 227.482 76.584C225.504 77.592 223.17 78.096 220.482 78.096ZM220.818 53.736C221.677 53.736 222.424 53.568 223.058 53.232C223.693 52.8587 224.197 52.3547 224.57 51.72C224.944 51.0854 225.13 50.3574 225.13 49.536C225.13 48.7147 224.944 47.9867 224.57 47.352C224.234 46.7174 223.73 46.232 223.058 45.896C222.424 45.5227 221.677 45.336 220.818 45.336C219.96 45.336 219.213 45.5227 218.578 45.896C217.944 46.232 217.44 46.7174 217.066 47.352C216.693 47.9867 216.506 48.7147 216.506 49.536C216.506 50.3574 216.693 51.0854 217.066 51.72C217.44 52.3547 217.944 52.8587 218.578 53.232C219.25 53.568 219.997 53.736 220.818 53.736Z" fill="white"/>
<path d="M238.656 33.688C239.552 34.584 240.672 35.032 242.016 35.032C243.36 35.032 244.461 34.584 245.32 33.688C246.179 32.7547 246.608 31.6347 246.608 30.328C246.608 28.984 246.179 27.864 245.32 26.968C244.461 26.072 243.36 25.624 242.016 25.624C240.672 25.624 239.552 26.072 238.656 26.968C237.797 27.864 237.368 28.984 237.368 30.328C237.368 31.6347 237.797 32.7547 238.656 33.688Z" fill="white"/>
<path d="M87.5804 38.784V66H96.1484V38.784H87.5804Z" fill="white"/>
<path d="M237.704 38.784V66H246.272V38.784H237.704Z" fill="white"/>
</g>
</svg>
