<svg width="48" height="48" viewBox="0 0 48 48" fill="none" xmlns="http://www.w3.org/2000/svg">
<path d="M0 24C0 10.7452 10.7452 0 24 0C37.2548 0 48 10.7452 48 24C48 37.2548 37.2548 48 24 48C10.7452 48 0 37.2548 0 24Z" fill="#7F56D9"/>
<path d="M14.876 30.1157C14.922 29.7022 14.945 29.4955 15.0075 29.3022C15.063 29.1308 15.1414 28.9676 15.2406 28.8172C15.3525 28.6476 15.4995 28.5005 15.7937 28.2063L29 15.0001C30.1046 13.8955 31.8955 13.8955 33 15.0001C34.1046 16.1046 34.1046 17.8955 33 19.0001L19.7937 32.2063C19.4995 32.5005 19.3525 32.6476 19.1829 32.7594C19.0324 32.8586 18.8693 32.937 18.6978 32.9925C18.5046 33.0551 18.2979 33.0781 17.8844 33.124L14.5 33.5001L14.876 30.1157Z" stroke="#E9D7FE" stroke-width="2" stroke-linecap="round" stroke-linejoin="round"/>
</svg>
