<svg width="56" height="56" viewBox="0 0 56 56" fill="none" xmlns="http://www.w3.org/2000/svg">
<g clip-path="url(#clip0_813_1387)">
<path d="M14.8633 32.6465C14.8633 31.2901 20.0096 30.529 22.4061 30.3441L22.6353 30.4765C21.7148 30.6442 18.0208 31.2955 18.0208 32.1454C18.0208 33.0705 23.6863 33.6767 26.9744 33.6767C32.5593 33.6767 36.3557 32.8314 37.3768 32.5532L38.8056 33.3841C37.8271 33.8634 33.6275 35.1183 26.9744 35.1183C19.5811 35.1182 14.8633 33.6721 14.8633 32.6465ZM26.1318 51.6917C23.2052 51.717 19.6326 51.4751 16.6273 50.9704L16.3482 51.1299C19.3427 52.0079 23.5114 52.5379 28.0916 52.4981C37.0868 52.4202 44.3797 50.1894 44.5237 47.5048L44.4204 47.4442C43.817 48.1798 39.9264 51.5712 26.1318 51.6917ZM26.8974 49.963C34.2599 49.8987 42.4969 48.458 42.476 46.0362C42.4715 45.5967 42.186 45.2959 41.9378 45.1148L41.8163 45.1845C41.1359 47.06 35.3843 48.4463 26.8855 48.5197C21.4021 48.5677 13.8058 47.2539 13.7922 45.7363C13.7794 44.2141 17.391 43.3778 17.391 43.3778L17.1355 43.232C14.7154 43.5654 10.2558 44.7243 10.2703 46.3977C10.2914 48.8167 20.5406 50.0182 26.8974 49.963ZM43.4836 33.2944C43.3351 36.1348 40.7111 37.9034 38.088 39.3975L38.3255 39.5353C41.1243 38.7471 46.1184 36.4547 45.7052 32.9301C45.4996 31.1733 43.8931 29.9175 41.7992 29.9175C41.1469 29.9175 40.567 30.0325 40.0968 30.1757L40.0949 30.1802L39.9952 30.4303C41.869 30.0633 43.5805 31.4315 43.4836 33.2944ZM21.8571 41.7341C21.0026 41.9045 19.1407 42.3322 19.1407 43.2373C19.1407 44.4912 23.1237 45.4526 26.9699 45.4526C32.2622 45.4526 34.4304 44.0908 34.5282 44.0201L32.3274 42.7471C31.3914 42.97 29.8149 43.3197 26.9754 43.3197C23.8069 43.3197 21.742 42.7779 21.742 42.1835C21.742 42.0575 21.8209 41.9072 21.9676 41.7985L21.8571 41.7341ZM34.858 37.5065C33.6411 37.8509 30.8994 38.4126 26.9789 38.4126C23.1318 38.4126 19.9888 37.7548 19.9787 36.9792C19.9714 36.4627 20.5957 36.2381 20.5957 36.2381L20.4852 36.1738C18.6423 36.4991 16.9316 37.0029 16.9407 37.7566C16.9579 39.1238 22.1876 40.1504 26.9716 40.1504C31.0389 40.1504 34.9449 39.4682 36.7071 38.5739L34.858 37.5065Z" fill="#427595"/>
<path d="M33.8088 7.00465C33.8088 14.5439 23.4771 17.4287 23.4771 22.789C23.4771 26.5518 25.9723 28.9112 27.3531 30.4034L27.2408 30.4687C25.4975 29.3777 20.912 26.6379 20.912 22.1122C20.912 15.758 32.7795 12.7219 32.7795 5.50517C32.7795 4.61724 32.6481 3.93593 32.5557 3.56891L32.6754 3.5C33.0513 3.9721 33.8088 5.15356 33.8088 7.00465ZM37.2065 13.6813L37.0824 13.6107C34.8345 14.3635 27.9122 17.0962 27.9122 22.1901C27.9122 25.0703 30.7255 26.6669 30.7255 29.3678C30.7255 30.3318 30.181 31.2351 29.7388 31.7751L29.9607 31.9037C31.1323 31.1427 33.2053 29.4946 33.2053 27.3672C33.2053 25.5651 30.7118 23.3996 30.7118 21.0837C30.7119 17.4342 35.523 14.571 37.2065 13.6813Z" fill="#DE8E2F"/>
</g>
<defs>
<clipPath id="clip0_813_1387">
<rect width="49" height="49" fill="white" transform="translate(3.5 3.5)"/>
</clipPath>
</defs>
</svg>
