<svg width="32" height="32" viewBox="0 0 32 32" fill="none" xmlns="http://www.w3.org/2000/svg">
<g filter="url(#filter0_ddiii_703_11662)">
<g clip-path="url(#clip0_703_11662)">
<rect x="2" width="28" height="28" rx="7" fill="#D92D20"/>
<rect width="28" height="28" transform="translate(2)" fill="url(#paint0_linear_703_11662)"/>
<g filter="url(#filter1_d_703_11662)">
<path d="M8.125 6.78125H20.725C21.8276 6.78125 22.3789 6.78125 22.8 6.99583C23.1705 7.18458 23.4717 7.48576 23.6604 7.85621C23.875 8.27735 23.875 8.82865 23.875 9.93125V10.7188H11.275C10.1724 10.7188 9.6211 10.7188 9.19996 10.5042C8.82951 10.3154 8.52833 10.0142 8.33958 9.64379C8.125 9.22266 8.125 8.67135 8.125 7.56875V6.78125Z" fill="url(#paint1_linear_703_11662)"/>
<path d="M8.125 15.9688H20.725C21.8276 15.9688 22.3789 15.9688 22.8 15.7542C23.1705 15.5654 23.4717 15.2642 23.6604 14.8938C23.875 14.4727 23.875 13.9214 23.875 12.8188V12.0313H11.275C10.1724 12.0313 9.6211 12.0313 9.19996 12.2458C8.82951 12.4346 8.52833 12.7358 8.33958 13.1062C8.125 13.5273 8.125 14.0786 8.125 15.1813V15.9688Z" fill="url(#paint2_linear_703_11662)"/>
<path d="M14.25 17.2813H20.725C21.8276 17.2813 22.3789 17.2813 22.8 17.4958C23.1705 17.6846 23.4717 17.9858 23.6604 18.3562C23.875 18.7773 23.875 19.3286 23.875 20.4313V21.2188H17.4C16.2974 21.2188 15.7461 21.2188 15.325 21.0042C14.9545 20.8154 14.6533 20.5142 14.4646 20.1438C14.25 19.7227 14.25 19.1714 14.25 18.0688V17.2813Z" fill="url(#paint3_linear_703_11662)"/>
</g>
</g>
<rect x="2.58333" y="0.583333" width="26.8333" height="26.8333" rx="6.41667" stroke="url(#paint4_linear_703_11662)" stroke-width="1.16667"/>
</g>
<defs>
<filter id="filter0_ddiii_703_11662" x="0.25" y="-1.75" width="31.5" height="33.25" filterUnits="userSpaceOnUse" color-interpolation-filters="sRGB">
<feFlood flood-opacity="0" result="BackgroundImageFix"/>
<feColorMatrix in="SourceAlpha" type="matrix" values="0 0 0 0 0 0 0 0 0 0 0 0 0 0 0 0 0 0 127 0" result="hardAlpha"/>
<feOffset dy="0.583333"/>
<feGaussianBlur stdDeviation="0.291667"/>
<feComposite in2="hardAlpha" operator="out"/>
<feColorMatrix type="matrix" values="0 0 0 0 0.162923 0 0 0 0 0.162923 0 0 0 0 0.162923 0 0 0 0.08 0"/>
<feBlend mode="normal" in2="BackgroundImageFix" result="effect1_dropShadow_703_11662"/>
<feColorMatrix in="SourceAlpha" type="matrix" values="0 0 0 0 0 0 0 0 0 0 0 0 0 0 0 0 0 0 127 0" result="hardAlpha"/>
<feMorphology radius="0.583333" operator="erode" in="SourceAlpha" result="effect2_dropShadow_703_11662"/>
<feOffset dy="1.75"/>
<feGaussianBlur stdDeviation="1.16667"/>
<feComposite in2="hardAlpha" operator="out"/>
<feColorMatrix type="matrix" values="0 0 0 0 0.164706 0 0 0 0 0.164706 0 0 0 0 0.164706 0 0 0 0.14 0"/>
<feBlend mode="normal" in2="effect1_dropShadow_703_11662" result="effect2_dropShadow_703_11662"/>
<feBlend mode="normal" in="SourceGraphic" in2="effect2_dropShadow_703_11662" result="shape"/>
<feColorMatrix in="SourceAlpha" type="matrix" values="0 0 0 0 0 0 0 0 0 0 0 0 0 0 0 0 0 0 127 0" result="hardAlpha"/>
<feOffset dy="-1.75"/>
<feGaussianBlur stdDeviation="0.875"/>
<feComposite in2="hardAlpha" operator="arithmetic" k2="-1" k3="1"/>
<feColorMatrix type="matrix" values="0 0 0 0 0 0 0 0 0 0 0 0 0 0 0 0 0 0 0.1 0"/>
<feBlend mode="normal" in2="shape" result="effect3_innerShadow_703_11662"/>
<feColorMatrix in="SourceAlpha" type="matrix" values="0 0 0 0 0 0 0 0 0 0 0 0 0 0 0 0 0 0 127 0" result="hardAlpha"/>
<feOffset dy="1.75"/>
<feGaussianBlur stdDeviation="0.875"/>
<feComposite in2="hardAlpha" operator="arithmetic" k2="-1" k3="1"/>
<feColorMatrix type="matrix" values="0 0 0 0 1 0 0 0 0 1 0 0 0 0 1 0 0 0 0.1 0"/>
<feBlend mode="normal" in2="effect3_innerShadow_703_11662" result="effect4_innerShadow_703_11662"/>
<feColorMatrix in="SourceAlpha" type="matrix" values="0 0 0 0 0 0 0 0 0 0 0 0 0 0 0 0 0 0 127 0" result="hardAlpha"/>
<feMorphology radius="0.583333" operator="erode" in="SourceAlpha" result="effect5_innerShadow_703_11662"/>
<feOffset/>
<feComposite in2="hardAlpha" operator="arithmetic" k2="-1" k3="1"/>
<feColorMatrix type="matrix" values="0 0 0 0 0 0 0 0 0 0 0 0 0 0 0 0 0 0 0.2 0"/>
<feBlend mode="normal" in2="effect4_innerShadow_703_11662" result="effect5_innerShadow_703_11662"/>
</filter>
<filter id="filter1_d_703_11662" x="6.375" y="3.0625" width="19.25" height="24.5" filterUnits="userSpaceOnUse" color-interpolation-filters="sRGB">
<feFlood flood-opacity="0" result="BackgroundImageFix"/>
<feColorMatrix in="SourceAlpha" type="matrix" values="0 0 0 0 0 0 0 0 0 0 0 0 0 0 0 0 0 0 127 0" result="hardAlpha"/>
<feMorphology radius="0.875" operator="erode" in="SourceAlpha" result="effect1_dropShadow_703_11662"/>
<feOffset dy="1.3125"/>
<feGaussianBlur stdDeviation="1.3125"/>
<feComposite in2="hardAlpha" operator="out"/>
<feColorMatrix type="matrix" values="0 0 0 0 0.141176 0 0 0 0 0.141176 0 0 0 0 0.141176 0 0 0 0.1 0"/>
<feBlend mode="normal" in2="BackgroundImageFix" result="effect1_dropShadow_703_11662"/>
<feBlend mode="normal" in="SourceGraphic" in2="effect1_dropShadow_703_11662" result="shape"/>
</filter>
<linearGradient id="paint0_linear_703_11662" x1="14" y1="3.47694e-07" x2="15.1667" y2="28" gradientUnits="userSpaceOnUse">
<stop stop-color="white" stop-opacity="0"/>
<stop offset="1" stop-color="white" stop-opacity="0.12"/>
</linearGradient>
<linearGradient id="paint1_linear_703_11662" x1="16" y1="6.78125" x2="16" y2="21.2188" gradientUnits="userSpaceOnUse">
<stop stop-color="white" stop-opacity="0.8"/>
<stop offset="1" stop-color="white" stop-opacity="0.5"/>
</linearGradient>
<linearGradient id="paint2_linear_703_11662" x1="16" y1="6.78125" x2="16" y2="21.2188" gradientUnits="userSpaceOnUse">
<stop stop-color="white" stop-opacity="0.8"/>
<stop offset="1" stop-color="white" stop-opacity="0.5"/>
</linearGradient>
<linearGradient id="paint3_linear_703_11662" x1="16" y1="6.78125" x2="16" y2="21.2188" gradientUnits="userSpaceOnUse">
<stop stop-color="white" stop-opacity="0.8"/>
<stop offset="1" stop-color="white" stop-opacity="0.5"/>
</linearGradient>
<linearGradient id="paint4_linear_703_11662" x1="16" y1="0" x2="16" y2="28" gradientUnits="userSpaceOnUse">
<stop stop-color="white" stop-opacity="0.12"/>
<stop offset="1" stop-color="white" stop-opacity="0"/>
</linearGradient>
<clipPath id="clip0_703_11662">
<rect x="2" width="28" height="28" rx="7" fill="white"/>
</clipPath>
</defs>
</svg>
