<svg width="68" height="68" viewBox="0 0 68 68" fill="none" xmlns="http://www.w3.org/2000/svg">
<g filter="url(#filter0_dii_623_13884)">
<path d="M2 13C2 6.37258 7.37258 1 14 1H54C60.6274 1 66 6.37258 66 13V53C66 59.6274 60.6274 65 54 65H14C7.37258 65 2 59.6274 2 53V13Z" fill="white" shape-rendering="crispEdges"/>
<path d="M14 1.5H54C60.3513 1.5 65.5 6.64873 65.5 13V53C65.5 59.3513 60.3513 64.5 54 64.5H14C7.64873 64.5 2.5 59.3513 2.5 53V13C2.5 6.64873 7.64873 1.5 14 1.5Z" stroke="#22262F" shape-rendering="crispEdges"/>
<path fill-rule="evenodd" clip-rule="evenodd" d="M28.7787 8.5C24.9338 8.5 21.8169 11.5179 21.8169 15.2407V19.9074H33.8661V21.2037H16.4617C12.6169 21.2037 9.5 24.2216 9.5 27.9444L9.5 38.0555C9.5 41.7783 12.6169 44.7963 16.4617 44.7963H20.4781V39.0926C20.4781 35.3698 23.595 32.3518 27.4399 32.3518H40.2923C43.5457 32.3518 46.183 29.7982 46.183 26.6481V15.2407C46.183 11.5179 43.0662 8.5 39.2213 8.5H28.7787ZM27.1721 16.7963C28.503 16.7963 29.582 15.7516 29.582 14.463C29.582 13.1743 28.503 12.1296 27.1721 12.1296C25.8412 12.1296 24.7623 13.1743 24.7623 14.463C24.7623 15.7516 25.8412 16.7963 27.1721 16.7963Z" fill="url(#paint0_linear_623_13884)"/>
<path fill-rule="evenodd" clip-rule="evenodd" d="M39.2213 57.4999C43.0662 57.4999 46.1831 54.482 46.1831 50.7592V46.0925L34.1339 46.0925L34.1339 44.7962L51.5383 44.7962C55.3831 44.7962 58.5 41.7783 58.5 38.0555V27.9444C58.5 24.2215 55.3831 21.2036 51.5383 21.2036L47.5219 21.2036V26.9073C47.5219 30.6301 44.405 33.6481 40.5601 33.6481L27.7077 33.648C24.4543 33.648 21.817 36.2017 21.817 39.3518L21.817 50.7592C21.817 54.482 24.9338 57.4999 28.7787 57.4999H39.2213ZM40.8279 49.2036C39.497 49.2036 38.418 50.2483 38.418 51.5369C38.418 52.8256 39.497 53.8703 40.8279 53.8703C42.1588 53.8703 43.2377 52.8256 43.2377 51.5369C43.2377 50.2483 42.1588 49.2036 40.8279 49.2036Z" fill="url(#paint1_linear_623_13884)"/>
</g>
<defs>
<filter id="filter0_dii_623_13884" x="0" y="0" width="68" height="68" filterUnits="userSpaceOnUse" color-interpolation-filters="sRGB">
<feFlood flood-opacity="0" result="BackgroundImageFix"/>
<feColorMatrix in="SourceAlpha" type="matrix" values="0 0 0 0 0 0 0 0 0 0 0 0 0 0 0 0 0 0 127 0" result="hardAlpha"/>
<feOffset dy="1"/>
<feGaussianBlur stdDeviation="1"/>
<feComposite in2="hardAlpha" operator="out"/>
<feColorMatrix type="matrix" values="0 0 0 0 0.0392157 0 0 0 0 0.0496732 0 0 0 0 0.0705882 0 0 0 0.05 0"/>
<feBlend mode="normal" in2="BackgroundImageFix" result="effect1_dropShadow_623_13884"/>
<feBlend mode="normal" in="SourceGraphic" in2="effect1_dropShadow_623_13884" result="shape"/>
<feColorMatrix in="SourceAlpha" type="matrix" values="0 0 0 0 0 0 0 0 0 0 0 0 0 0 0 0 0 0 127 0" result="hardAlpha"/>
<feOffset dy="-2"/>
<feComposite in2="hardAlpha" operator="arithmetic" k2="-1" k3="1"/>
<feColorMatrix type="matrix" values="0 0 0 0 0.0392157 0 0 0 0 0.0496732 0 0 0 0 0.0705882 0 0 0 0.05 0"/>
<feBlend mode="normal" in2="shape" result="effect2_innerShadow_623_13884"/>
<feColorMatrix in="SourceAlpha" type="matrix" values="0 0 0 0 0 0 0 0 0 0 0 0 0 0 0 0 0 0 127 0" result="hardAlpha"/>
<feMorphology radius="1" operator="erode" in="SourceAlpha" result="effect3_innerShadow_623_13884"/>
<feOffset/>
<feComposite in2="hardAlpha" operator="arithmetic" k2="-1" k3="1"/>
<feColorMatrix type="matrix" values="0 0 0 0 0.0392157 0 0 0 0 0.0496732 0 0 0 0 0.0705882 0 0 0 0.18 0"/>
<feBlend mode="normal" in2="effect2_innerShadow_623_13884" result="effect3_innerShadow_623_13884"/>
</filter>
<linearGradient id="paint0_linear_623_13884" x1="27.8415" y1="8.5" x2="27.8415" y2="44.7963" gradientUnits="userSpaceOnUse">
<stop stop-color="#327EBD"/>
<stop offset="1" stop-color="#1565A7"/>
</linearGradient>
<linearGradient id="paint1_linear_623_13884" x1="40.1585" y1="21.2036" x2="40.1585" y2="57.4999" gradientUnits="userSpaceOnUse">
<stop stop-color="#FFDA4B"/>
<stop offset="1" stop-color="#F9C600"/>
</linearGradient>
</defs>
</svg>
