<svg width="68" height="68" viewBox="0 0 68 68" fill="none" xmlns="http://www.w3.org/2000/svg">
<g filter="url(#filter0_dii_623_13898)">
<path d="M2 13C2 6.37258 7.37258 1 14 1H54C60.6274 1 66 6.37258 66 13V53C66 59.6274 60.6274 65 54 65H14C7.37258 65 2 59.6274 2 53V13Z" fill="white" shape-rendering="crispEdges"/>
<path d="M2.5 13C2.5 6.64873 7.64873 1.5 14 1.5H54C60.3513 1.5 65.5 6.64873 65.5 13V53C65.5 59.3513 60.3513 64.5 54 64.5H14C7.64873 64.5 2.5 59.3513 2.5 53V13Z" stroke="#22262F" shape-rendering="crispEdges"/>
<path d="M38.6881 32.9578C38.6881 30.4476 36.5893 28.4124 34 28.4124C31.411 28.4124 29.312 30.4476 29.312 32.9578C29.312 35.4683 31.411 37.5035 34 37.5035C36.5893 37.5035 38.6881 35.4683 38.6881 32.9578Z" fill="#53C1DE"/>
<path fill-rule="evenodd" clip-rule="evenodd" d="M49.2256 24.519C50.2157 20.6184 51.4602 13.3851 47.0732 10.9328C42.7068 8.49116 37.0248 13.1697 34.0244 15.9781C31.0327 13.1977 25.1911 8.53914 20.8079 10.9992C16.4431 13.449 17.7891 20.5624 18.8011 24.4874C14.7295 25.6087 7.75 28.0237 7.75 32.9578C7.75 37.878 14.7223 40.5054 18.7697 41.6256C17.754 45.5724 16.4754 52.5841 20.8457 55.0284C25.2452 57.4881 31.0688 52.9404 34.0969 50.1014C37.1165 52.9262 42.7441 57.5036 47.1113 55.0525C51.4924 52.5935 50.3513 45.4572 49.3393 41.5093C53.2627 40.3867 60.25 37.8166 60.25 32.9578C60.25 28.0711 53.2331 25.6365 49.2256 24.519ZM48.7284 39.4172C48.0639 37.3778 47.1671 35.209 46.0699 32.9686C47.1171 30.7812 47.9791 28.6404 48.625 26.614C51.5628 27.4398 58.0074 29.3273 58.0074 32.9578C58.0074 36.6224 51.8231 38.5277 48.7284 39.4172ZM45.9874 53.1705C42.7291 54.9992 37.8888 50.6219 35.6587 48.5416C37.1381 46.9727 38.6165 45.1489 40.0594 43.1237C42.5975 42.9054 44.9953 42.5483 47.1698 42.061C47.8821 44.8535 49.2604 51.3335 45.9874 53.1705ZM21.9663 53.1444C18.7075 51.3225 20.197 45.0656 20.9442 42.1583C23.0946 42.6195 25.475 42.9513 28.0192 43.1514C29.4716 45.1331 30.9927 46.9547 32.5258 48.5499C30.6317 50.3263 25.2404 54.9748 21.9663 53.1444ZM9.99261 32.9578C9.99261 29.2794 16.3986 27.4058 19.4033 26.5821C20.0604 28.6539 20.9222 30.8202 21.9621 33.0108C20.9087 35.234 20.0346 37.4348 19.3715 39.531C16.5065 38.7358 9.99261 36.6385 9.99261 32.9578ZM21.9315 12.8812C25.2036 11.0448 30.2808 15.5172 32.4528 17.5302C30.9277 19.1182 29.4205 20.926 27.9806 22.8963C25.5115 23.1182 23.1478 23.4746 20.9749 23.952C20.1597 20.7862 18.6629 14.7156 21.9315 12.8812ZM41.6637 25.2599C43.3389 25.4649 44.9437 25.7375 46.4507 26.0711C45.9984 27.4771 45.4345 28.9472 44.7704 30.4543C43.8077 28.6832 42.7743 26.9478 41.6637 25.2599ZM34.0251 19.0842C35.0595 20.1707 36.0955 21.384 37.1146 22.7003C35.0474 22.6056 32.9768 22.6052 30.9096 22.699C31.9296 21.3948 32.9744 20.1833 34.0251 19.0842ZM23.2489 30.4528C22.5958 28.9508 22.037 27.4742 21.5806 26.0482C23.0786 25.7231 24.6759 25.4575 26.3402 25.2559C25.2266 26.94 24.1949 28.6748 23.2489 30.4528ZM26.3881 40.815C24.6687 40.6289 23.0472 40.3769 21.5497 40.0608C22.0133 38.6096 22.5844 37.1011 23.2514 35.567C24.2106 37.3632 25.2579 39.1149 26.3881 40.815ZM34.0871 46.9851C33.0241 45.8729 31.964 44.6429 30.9284 43.3199C33.0075 43.3991 35.0905 43.3992 37.1692 43.3093C36.1469 44.6564 35.1146 45.8882 34.0871 46.9851ZM44.7918 35.4888C45.4935 37.0396 46.085 38.54 46.5548 39.9666C45.0325 40.3034 43.3891 40.5747 41.6574 40.7761C42.7763 39.0563 43.826 37.2938 44.7918 35.4888ZM38.8077 41.0396C35.6277 41.2599 32.4277 41.2576 29.2467 41.0576C27.439 38.4975 25.83 35.8052 24.441 33.0101C25.8232 30.2208 27.4206 27.5338 29.2197 24.9776C32.4032 24.7443 35.6062 24.7438 38.7896 24.979C40.5731 27.535 42.1681 30.215 43.5824 32.9792C42.1849 35.7672 40.5792 38.4596 38.8077 41.0396ZM45.953 12.8165C49.2261 14.6469 47.7692 21.1477 47.0541 23.9745C44.8761 23.4872 42.5108 23.1245 40.0345 22.8992C38.5919 20.9076 37.0972 19.0966 35.5967 17.5291C37.7967 15.4727 42.7117 11.0041 45.953 12.8165Z" fill="#53C1DE"/>
</g>
<defs>
<filter id="filter0_dii_623_13898" x="0" y="0" width="68" height="68" filterUnits="userSpaceOnUse" color-interpolation-filters="sRGB">
<feFlood flood-opacity="0" result="BackgroundImageFix"/>
<feColorMatrix in="SourceAlpha" type="matrix" values="0 0 0 0 0 0 0 0 0 0 0 0 0 0 0 0 0 0 127 0" result="hardAlpha"/>
<feOffset dy="1"/>
<feGaussianBlur stdDeviation="1"/>
<feComposite in2="hardAlpha" operator="out"/>
<feColorMatrix type="matrix" values="0 0 0 0 0.0392157 0 0 0 0 0.0496732 0 0 0 0 0.0705882 0 0 0 0.05 0"/>
<feBlend mode="normal" in2="BackgroundImageFix" result="effect1_dropShadow_623_13898"/>
<feBlend mode="normal" in="SourceGraphic" in2="effect1_dropShadow_623_13898" result="shape"/>
<feColorMatrix in="SourceAlpha" type="matrix" values="0 0 0 0 0 0 0 0 0 0 0 0 0 0 0 0 0 0 127 0" result="hardAlpha"/>
<feOffset dy="-2"/>
<feComposite in2="hardAlpha" operator="arithmetic" k2="-1" k3="1"/>
<feColorMatrix type="matrix" values="0 0 0 0 0.0392157 0 0 0 0 0.0496732 0 0 0 0 0.0705882 0 0 0 0.05 0"/>
<feBlend mode="normal" in2="shape" result="effect2_innerShadow_623_13898"/>
<feColorMatrix in="SourceAlpha" type="matrix" values="0 0 0 0 0 0 0 0 0 0 0 0 0 0 0 0 0 0 127 0" result="hardAlpha"/>
<feMorphology radius="1" operator="erode" in="SourceAlpha" result="effect3_innerShadow_623_13898"/>
<feOffset/>
<feComposite in2="hardAlpha" operator="arithmetic" k2="-1" k3="1"/>
<feColorMatrix type="matrix" values="0 0 0 0 0.0392157 0 0 0 0 0.0496732 0 0 0 0 0.0705882 0 0 0 0.18 0"/>
<feBlend mode="normal" in2="effect2_innerShadow_623_13898" result="effect3_innerShadow_623_13898"/>
</filter>
</defs>
</svg>
