<svg width="68" height="68" viewBox="0 0 68 68" fill="none" xmlns="http://www.w3.org/2000/svg">
<g filter="url(#filter0_dii_805_1342)">
<path d="M2 13C2 6.37258 7.37258 1 14 1H54C60.6274 1 66 6.37258 66 13V53C66 59.6274 60.6274 65 54 65H14C7.37258 65 2 59.6274 2 53V13Z" fill="white" shape-rendering="crispEdges"/>
<path d="M14 1.5H54C60.3513 1.5 65.5 6.64873 65.5 13V53C65.5 59.3513 60.3513 64.5 54 64.5H14C7.64873 64.5 2.5 59.3513 2.5 53V13C2.5 6.64873 7.64873 1.5 14 1.5Z" stroke="#22262F" shape-rendering="crispEdges"/>
<g clip-path="url(#clip0_805_1342)">
<path d="M56.2031 8.5H11.7969C10.5283 8.5 9.5 9.52835 9.5 10.7969V55.2031C9.5 56.4717 10.5283 57.5 11.7969 57.5H56.2031C57.4717 57.5 58.5 56.4717 58.5 55.2031V10.7969C58.5 9.52835 57.4717 8.5 56.2031 8.5Z" fill="#3178C6"/>
<path fill-rule="evenodd" clip-rule="evenodd" d="M37.9285 46.5776V51.9469C38.7984 52.394 39.8272 52.7298 41.0149 52.9533C42.2027 53.1773 43.4545 53.2891 44.7705 53.2891C46.053 53.2891 47.2714 53.1662 48.4255 52.92C49.5801 52.6739 50.5919 52.2685 51.462 51.7035C52.3317 51.1384 53.0204 50.4004 53.528 49.4885C54.0353 48.577 54.2891 47.45 54.2891 46.1078C54.2891 45.1346 54.144 44.2817 53.8542 43.549C53.564 42.8163 53.146 42.1648 52.5993 41.5943C52.0531 41.0238 51.3977 40.5121 50.634 40.0591C49.8699 39.606 49.0085 39.1782 48.0492 38.7755C47.3467 38.4847 46.7166 38.2022 46.159 37.9282C45.6013 37.6541 45.1274 37.3745 44.737 37.0892C44.3467 36.804 44.0456 36.502 43.8337 36.1832C43.6218 35.8644 43.5158 35.5036 43.5158 35.101C43.5158 34.7318 43.6106 34.399 43.8002 34.1026C43.9898 33.8062 44.2575 33.5517 44.6032 33.3392C44.9489 33.1267 45.3727 32.9617 45.8746 32.8442C46.3764 32.7267 46.934 32.668 47.5474 32.668C47.9937 32.668 48.4646 32.7016 48.9611 32.7687C49.4572 32.8358 49.9564 32.9393 50.4583 33.0791C50.9601 33.2189 51.4478 33.3951 51.9221 33.6076C52.3961 33.8202 52.8336 34.0662 53.2352 34.3459V29.3291C52.4209 29.0159 51.5317 28.7838 50.567 28.6328C49.6023 28.4817 48.4956 28.4062 47.2463 28.4062C45.9749 28.4062 44.7705 28.5433 43.6329 28.8173C42.4954 29.0914 41.4945 29.5192 40.6302 30.1009C39.7658 30.6826 39.0828 31.4236 38.5809 32.3241C38.0791 33.2245 37.8281 34.3011 37.8281 35.554C37.8281 37.1536 38.2882 38.5182 39.2082 39.648C40.1283 40.7778 41.5251 41.7341 43.3987 42.5171C44.1348 42.8191 44.8207 43.1156 45.4564 43.4064C46.0921 43.6972 46.6413 43.9992 47.1041 44.3125C47.567 44.6257 47.9321 44.9668 48.1997 45.3359C48.4676 45.7051 48.6012 46.1245 48.6012 46.5944C48.6012 46.9413 48.5178 47.2628 48.3505 47.5591C48.1832 47.8554 47.9294 48.1127 47.5893 48.3309C47.2491 48.5491 46.8253 48.7198 46.3179 48.8427C45.8105 48.9656 45.2166 49.0272 44.5363 49.0272C43.3764 49.0272 42.2278 48.8232 41.0902 48.4147C39.9527 48.0066 38.8988 47.3941 37.9285 46.5776ZM28.9096 33.2122H35.9141V28.7891H16.3906V33.2122H23.3608V52.9062H28.9096V33.2122Z" fill="white"/>
</g>
</g>
<defs>
<filter id="filter0_dii_805_1342" x="0" y="0" width="68" height="68" filterUnits="userSpaceOnUse" color-interpolation-filters="sRGB">
<feFlood flood-opacity="0" result="BackgroundImageFix"/>
<feColorMatrix in="SourceAlpha" type="matrix" values="0 0 0 0 0 0 0 0 0 0 0 0 0 0 0 0 0 0 127 0" result="hardAlpha"/>
<feOffset dy="1"/>
<feGaussianBlur stdDeviation="1"/>
<feComposite in2="hardAlpha" operator="out"/>
<feColorMatrix type="matrix" values="0 0 0 0 0.0392157 0 0 0 0 0.0496732 0 0 0 0 0.0705882 0 0 0 0.05 0"/>
<feBlend mode="normal" in2="BackgroundImageFix" result="effect1_dropShadow_805_1342"/>
<feBlend mode="normal" in="SourceGraphic" in2="effect1_dropShadow_805_1342" result="shape"/>
<feColorMatrix in="SourceAlpha" type="matrix" values="0 0 0 0 0 0 0 0 0 0 0 0 0 0 0 0 0 0 127 0" result="hardAlpha"/>
<feOffset dy="-2"/>
<feComposite in2="hardAlpha" operator="arithmetic" k2="-1" k3="1"/>
<feColorMatrix type="matrix" values="0 0 0 0 0.0392157 0 0 0 0 0.0496732 0 0 0 0 0.0705882 0 0 0 0.05 0"/>
<feBlend mode="normal" in2="shape" result="effect2_innerShadow_805_1342"/>
<feColorMatrix in="SourceAlpha" type="matrix" values="0 0 0 0 0 0 0 0 0 0 0 0 0 0 0 0 0 0 127 0" result="hardAlpha"/>
<feMorphology radius="1" operator="erode" in="SourceAlpha" result="effect3_innerShadow_805_1342"/>
<feOffset/>
<feComposite in2="hardAlpha" operator="arithmetic" k2="-1" k3="1"/>
<feColorMatrix type="matrix" values="0 0 0 0 0.0392157 0 0 0 0 0.0496732 0 0 0 0 0.0705882 0 0 0 0.18 0"/>
<feBlend mode="normal" in2="effect2_innerShadow_805_1342" result="effect3_innerShadow_805_1342"/>
</filter>
<clipPath id="clip0_805_1342">
<rect width="49" height="49" fill="white" transform="translate(9.5 8.5)"/>
</clipPath>
</defs>
</svg>
