<svg width="56" height="56" viewBox="0 0 56 56" fill="none" xmlns="http://www.w3.org/2000/svg">
<g clip-path="url(#clip0_805_1356)">
<path d="M50.2031 3.5H5.79688C4.52835 3.5 3.5 4.52835 3.5 5.79688V50.2031C3.5 51.4717 4.52835 52.5 5.79688 52.5H50.2031C51.4717 52.5 52.5 51.4717 52.5 50.2031V5.79688C52.5 4.52835 51.4717 3.5 50.2031 3.5Z" fill="#3178C6"/>
<path fill-rule="evenodd" clip-rule="evenodd" d="M31.9285 41.5776V46.9469C32.7984 47.394 33.8272 47.7298 35.0149 47.9533C36.2027 48.1773 37.4545 48.2891 38.7705 48.2891C40.053 48.2891 41.2714 48.1662 42.4255 47.92C43.5801 47.6739 44.5919 47.2685 45.462 46.7035C46.3317 46.1384 47.0204 45.4004 47.528 44.4885C48.0353 43.577 48.2891 42.45 48.2891 41.1078C48.2891 40.1346 48.144 39.2817 47.8542 38.549C47.564 37.8163 47.146 37.1648 46.5993 36.5943C46.0531 36.0238 45.3977 35.5121 44.634 35.0591C43.8699 34.606 43.0085 34.1782 42.0492 33.7755C41.3467 33.4847 40.7166 33.2022 40.159 32.9282C39.6013 32.6541 39.1274 32.3745 38.737 32.0892C38.3467 31.804 38.0456 31.502 37.8337 31.1832C37.6218 30.8644 37.5158 30.5036 37.5158 30.101C37.5158 29.7318 37.6106 29.399 37.8002 29.1026C37.9898 28.8062 38.2575 28.5517 38.6032 28.3392C38.9489 28.1267 39.3727 27.9617 39.8746 27.8442C40.3764 27.7267 40.934 27.668 41.5474 27.668C41.9937 27.668 42.4646 27.7016 42.9611 27.7687C43.4572 27.8358 43.9564 27.9393 44.4583 28.0791C44.9601 28.2189 45.4478 28.3951 45.9221 28.6076C46.3961 28.8202 46.8336 29.0662 47.2352 29.3459V24.3291C46.4209 24.0159 45.5317 23.7838 44.567 23.6328C43.6023 23.4817 42.4956 23.4062 41.2463 23.4062C39.9749 23.4062 38.7705 23.5433 37.6329 23.8173C36.4954 24.0914 35.4945 24.5192 34.6302 25.1009C33.7658 25.6826 33.0828 26.4236 32.5809 27.3241C32.0791 28.2245 31.8281 29.3011 31.8281 30.554C31.8281 32.1536 32.2882 33.5182 33.2082 34.648C34.1283 35.7778 35.5251 36.7341 37.3987 37.5171C38.1348 37.8191 38.8207 38.1156 39.4564 38.4064C40.0921 38.6972 40.6413 38.9992 41.1041 39.3125C41.567 39.6257 41.9321 39.9668 42.1997 40.3359C42.4676 40.7051 42.6012 41.1245 42.6012 41.5944C42.6012 41.9413 42.5178 42.2628 42.3505 42.5591C42.1832 42.8554 41.9294 43.1127 41.5893 43.3309C41.2491 43.5491 40.8253 43.7198 40.3179 43.8427C39.8105 43.9656 39.2166 44.0272 38.5363 44.0272C37.3764 44.0272 36.2278 43.8232 35.0902 43.4147C33.9527 43.0066 32.8988 42.3941 31.9285 41.5776ZM22.9096 28.2122H29.9141V23.7891H10.3906V28.2122H17.3608V47.9062H22.9096V28.2122Z" fill="white"/>
</g>
<defs>
<clipPath id="clip0_805_1356">
<rect width="49" height="49" fill="white" transform="translate(3.5 3.5)"/>
</clipPath>
</defs>
</svg>
